<svg xmlns="http://www.w3.org/2000/svg" xmlns:xlink="http://www.w3.org/1999/xlink" width="1080" zoomAndPan="magnify" viewBox="0 0 810 809.999993" height="1080" preserveAspectRatio="xMidYMid meet" version="1.0"><defs><clipPath id="56c1a52790"><path d="M 81.1875 245 L 739.5 245 L 739.5 715 L 81.1875 715 Z M 81.1875 245 " clip-rule="nonzero"/></clipPath><clipPath id="d189e970e2"><path d="M 163 172.261719 L 657.910156 172.261719 L 657.910156 742.632812 L 163 742.632812 Z M 163 172.261719 " clip-rule="nonzero"/></clipPath></defs><g clip-path="url(#56c1a52790)"><path fill="#de82eb" d="M 413.144531 253.011719 L 553.652344 290.984375 C 594.046875 301.902344 627.359375 330.457031 644.328125 368.707031 L 730.40625 562.738281 C 753.9375 615.761719 730.347656 678.792969 676.84375 701.195312 C 668.941406 704.503906 661.59375 706.335938 655.382812 705.921875 L 635.453125 714.597656 L 555.171875 676.726562 L 579.628906 645.167969 L 264.402344 645.167969 L 233.242188 517.339844 L 192.996094 639.644531 L 192.210938 669.625 L 147.574219 669.625 C 103.507812 669.625 71.6875 627.453125 83.777344 585.074219 L 129.207031 425.867188 C 137.820312 395.65625 156.257812 369.179688 181.59375 350.613281 L 325.558594 245.121094 L 413.144531 253.011719 " fill-opacity="1" fill-rule="nonzero"/></g><path fill="#100f0d" d="M 316.484375 259.722656 C 270.984375 238.09375 245.632812 188.714844 246.261719 181.207031 C 247.441406 167.003906 262.828125 142.546875 311.355469 111.773438 C 359.886719 81 424.976562 116.109375 428.136719 162.269531 C 431.292969 208.429688 418.273438 271.160156 418.273438 271.160156 C 418.273438 271.160156 357.035156 278.988281 316.484375 259.722656 " fill-opacity="1" fill-rule="nonzero"/><path fill="#ffffff" d="M 306.621094 330.734375 C 336.210938 367.816406 357.125 363.082031 376.054688 354.011719 C 394.996094 344.933594 421.429688 288.914062 415.90625 262.476562 C 410.382812 236.050781 423.007812 225 419.453125 206.0625 C 415.90625 187.128906 399.730469 189.890625 392.234375 196.988281 C 384.738281 204.089844 388.679688 225.792969 388.679688 225.792969 C 388.679688 225.792969 377.636719 228.941406 370.144531 211.585938 C 362.640625 194.226562 360.671875 178.839844 360.671875 178.839844 C 360.671875 178.839844 335.816406 220.265625 293.601562 215.929688 C 251.390625 211.585938 249.023438 180.8125 249.808594 174.898438 C 249.808594 174.898438 240.738281 199.753906 249.808594 223.8125 C 258.886719 247.882812 277.035156 293.644531 306.621094 330.734375 Z M 631.75 708.769531 C 623.949219 697.492188 603.679688 672.835938 569.4375 661.796875 C 568.472656 661.484375 567.457031 661.398438 566.449219 661.539062 C 559.105469 662.5625 527.269531 667.953125 510.589844 686.199219 C 491.652344 706.910156 487.511719 730.578125 506.449219 737.089844 C 524.574219 743.320312 539.992188 741.417969 561.007812 722.035156 C 562.742188 720.433594 565.171875 719.839844 567.433594 720.542969 C 577.28125 723.574219 605.632812 730.457031 629.472656 718.175781 C 632.90625 716.40625 633.949219 711.949219 631.75 708.769531 Z M 261.804688 634.292969 C 266.105469 634.804688 269.183594 630.136719 267.304688 626.222656 L 253.757812 598.019531 C 249.867188 589.933594 241.839844 584.652344 232.875 584.289062 L 220.832031 583.796875 C 220.832031 583.796875 244.320312 617.917969 252.1875 628.308594 C 255.265625 632.382812 258.730469 633.921875 261.804688 634.292969 Z M 220.804688 673.285156 C 233.847656 673.285156 247.40625 651.902344 247.40625 651.902344 L 238.832031 639.800781 C 242.300781 641.824219 245.550781 643.722656 247.925781 645.125 C 256.796875 650.339844 265.664062 643.035156 253.144531 633.648438 C 240.625 624.257812 228.109375 615.917969 228.109375 615.917969 L 225.578125 605.335938 C 221.976562 590.246094 207.597656 579.675781 190.433594 580.863281 C 179.203125 581.632812 161.621094 597.082031 167.351562 625.242188 C 173.09375 653.40625 183.140625 673.285156 199.3125 673.285156 C 215.484375 673.285156 207.765625 673.285156 220.804688 673.285156 Z M 266.382812 657 L 441.550781 657 L 383.949219 709.871094 L 196.15625 709.871094 L 266.382812 657 " fill-opacity="1" fill-rule="nonzero"/><g clip-path="url(#d189e970e2)"><path fill="#100f0d" d="M 249.167969 187.851562 C 250.433594 191.832031 252.5 196.199219 255.792969 200.371094 C 263.792969 210.511719 276.433594 216.539062 293.363281 218.285156 C 327.621094 221.8125 350.992188 195.964844 359.328125 184.910156 C 360.5625 191.027344 363.125 201.328125 367.96875 212.527344 C 376.195312 231.566406 388.792969 228.21875 389.332031 228.066406 C 390.503906 227.734375 391.234375 226.5625 391.011719 225.367188 C 389.976562 219.679688 388.476562 203.808594 393.863281 198.703125 C 397.277344 195.472656 403.394531 192.789062 408.742188 194.507812 C 413.019531 195.898438 415.917969 200.046875 417.128906 206.5 C 418.644531 214.5625 417.054688 221.027344 415.222656 228.511719 C 412.988281 237.628906 410.453125 247.960938 413.585938 262.960938 C 418.96875 288.714844 392.917969 343.304688 375.03125 351.878906 C 357.273438 360.386719 337.507812 365.652344 308.472656 329.253906 C 280.652344 294.386719 262.929688 251.902344 252.027344 222.980469 C 247.203125 210.1875 247.734375 197.03125 249.167969 187.851562 Z M 421.375 378.238281 L 386.699219 348.515625 C 404.402344 329.636719 423.136719 285.496094 418.21875 262 C 417.65625 259.308594 417.339844 256.832031 417.128906 254.460938 C 446.804688 281.410156 426.378906 360.671875 421.375 378.238281 Z M 367.734375 394.585938 L 353.511719 362.800781 C 362.121094 362.609375 369.898438 359.589844 377.074219 356.144531 C 377.957031 355.722656 378.859375 355.171875 379.769531 354.5625 Z M 311.773438 387.875 L 308.308594 336.496094 C 319.214844 349.242188 329.027344 356.390625 337.980469 359.929688 Z M 303.234375 330.21875 C 303.21875 330.378906 303.164062 330.527344 303.175781 330.695312 L 307.417969 393.621094 C 307.476562 394.5625 308.09375 395.375 308.980469 395.6875 C 309.246094 395.78125 309.507812 395.832031 309.777344 395.832031 C 310.417969 395.832031 311.046875 395.566406 311.503906 395.082031 L 342.765625 361.738281 C 342.820312 361.683594 342.84375 361.613281 342.886719 361.554688 C 344.726562 362.03125 346.523438 362.363281 348.285156 362.566406 C 348.316406 362.667969 348.308594 362.769531 348.351562 362.867188 L 365.902344 402.074219 L 412.996094 642.269531 C 413.210938 643.402344 414.203125 644.179688 415.308594 644.179688 C 415.460938 644.179688 415.613281 644.167969 415.769531 644.132812 C 417.050781 643.886719 417.890625 642.640625 417.632812 641.359375 L 370.605469 401.476562 L 385.074219 353.355469 L 421.070312 384.214844 C 421.507812 384.585938 422.054688 384.78125 422.609375 384.78125 C 422.832031 384.78125 423.046875 384.753906 423.265625 384.691406 C 424.03125 384.472656 424.628906 383.882812 424.871094 383.128906 C 426.210938 378.875 457.273438 278.613281 417.726562 248.757812 C 417.464844 248.554688 417.171875 248.421875 416.863281 248.34375 C 416.984375 241.261719 418.410156 235.382812 419.820312 229.636719 C 421.699219 221.957031 423.480469 214.695312 421.785156 205.628906 C 419.824219 195.1875 414.402344 191.371094 410.203125 190.011719 C 403 187.671875 395 191.101562 390.605469 195.269531 C 383.785156 201.734375 385.078125 217.265625 385.949219 223.632812 C 382.855469 223.417969 376.980469 221.441406 372.3125 210.644531 C 365.050781 193.828125 363.035156 178.691406 363.019531 178.542969 C 362.886719 177.542969 362.136719 176.734375 361.15625 176.523438 C 360.183594 176.335938 359.167969 176.761719 358.640625 177.625 C 358.398438 178.027344 334.019531 217.734375 293.847656 213.570312 C 278.238281 211.96875 266.6875 206.539062 259.507812 197.4375 C 252.308594 188.308594 251.773438 178.074219 252.15625 175.210938 C 252.3125 174.011719 251.546875 172.886719 250.378906 172.597656 C 249.199219 172.316406 248 172.953125 247.585938 174.085938 C 247.203125 175.132812 238.316406 200.046875 247.59375 224.652344 C 258.414062 253.335938 275.894531 295.214844 303.234375 330.21875 Z M 630.414062 713.488281 C 630.132812 714.628906 629.410156 715.546875 628.390625 716.074219 C 605.621094 727.804688 578.652344 721.523438 568.128906 718.277344 C 565.09375 717.34375 561.757812 718.117188 559.402344 720.296875 C 547.042969 731.691406 537.007812 736.628906 527.570312 737.703125 C 527.75 736.3125 529.589844 730.164062 546.613281 712.703125 C 547.523438 711.769531 547.503906 710.273438 546.5625 709.355469 C 545.640625 708.449219 544.144531 708.464844 543.214844 709.402344 C 529.757812 723.203125 522.910156 732.898438 522.898438 737.929688 C 519.546875 737.875 516.242188 737.378906 512.890625 736.546875 C 511.386719 730.082031 526.28125 710.085938 536.035156 699.003906 C 536.898438 698.027344 536.804688 696.527344 535.828125 695.664062 C 534.851562 694.796875 533.347656 694.898438 532.484375 695.875 C 528.3125 700.613281 508.828125 723.371094 508.132812 735.148438 C 507.828125 735.046875 507.523438 734.957031 507.21875 734.851562 C 504.722656 733.992188 502.710938 732.765625 501.082031 731.261719 C 500.265625 717.457031 519.34375 693.246094 519.542969 693 C 520.355469 691.96875 520.1875 690.484375 519.164062 689.667969 C 518.140625 688.859375 516.652344 689.019531 515.839844 690.046875 C 515.109375 690.96875 500.558594 709.441406 497.074219 724.566406 C 497.074219 724.5625 497.066406 724.550781 497.0625 724.539062 C 494.597656 714.875 500.453125 700.792969 512.339844 687.792969 C 528.628906 669.972656 560.546875 664.753906 566.785156 663.886719 C 566.988281 663.855469 567.191406 663.839844 567.394531 663.839844 C 567.839844 663.839844 568.28125 663.910156 568.707031 664.046875 L 568.714844 664.046875 C 602.675781 675.007812 622.746094 699.914062 629.804688 710.121094 C 630.480469 711.097656 630.703125 712.328125 630.414062 713.488281 Z M 571.828125 660.140625 L 614.847656 602.035156 C 620.613281 594.253906 621.648438 583.972656 617.5625 575.195312 L 558.894531 449.277344 C 558.335938 448.089844 556.929688 447.585938 555.75 448.132812 C 554.5625 448.683594 554.046875 450.089844 554.605469 451.269531 L 613.273438 577.195312 C 616.628906 584.394531 615.777344 592.832031 611.050781 599.214844 L 566.648438 659.183594 C 566.472656 659.195312 566.300781 659.171875 566.125 659.195312 C 556.976562 660.472656 525.796875 666.054688 508.839844 684.597656 C 495.894531 698.761719 489.621094 714.515625 492.472656 725.707031 C 494.132812 732.21875 498.695312 736.929688 505.675781 739.324219 C 512.023438 741.507812 517.90625 742.632812 523.578125 742.632812 C 536.695312 742.632812 548.679688 736.628906 562.609375 723.769531 C 563.742188 722.730469 565.324219 722.371094 566.730469 722.800781 C 577.820312 726.226562 606.222656 732.820312 630.558594 720.277344 C 632.777344 719.140625 634.398438 717.078125 635.011719 714.632812 C 635.628906 712.152344 635.140625 709.523438 633.691406 707.425781 C 626.484375 696.996094 606.144531 671.800781 571.828125 660.140625 Z M 169.671875 624.773438 C 167.144531 612.359375 169.191406 601 175.449219 592.785156 C 179.601562 587.320312 185.542969 583.570312 190.59375 583.222656 C 191.398438 583.167969 192.1875 583.136719 192.972656 583.136719 C 207.527344 583.136719 220.0625 592.40625 223.277344 605.886719 L 226.023438 617.367188 L 226.796875 617.882812 C 226.921875 617.96875 239.402344 626.300781 251.726562 635.546875 C 256.398438 639.050781 257.585938 642.058594 256.710938 643.371094 C 255.878906 644.628906 252.769531 645.222656 249.125 643.082031 C 240.257812 637.863281 219.4375 625.761719 219.4375 625.761719 L 217.058594 629.855469 C 217.058594 629.855469 227.851562 636.128906 237.195312 641.585938 L 244.535156 651.949219 C 240.226562 658.265625 229.742188 670.921875 220.804688 670.921875 L 199.3125 670.921875 C 182.589844 670.921875 173.960938 645.828125 169.671875 624.773438 Z M 232.78125 586.65625 C 240.894531 586.984375 248.105469 591.734375 251.625 599.046875 L 265.171875 627.246094 C 265.800781 628.558594 265.421875 629.878906 264.855469 630.667969 C 264.535156 631.113281 263.613281 632.105469 262.078125 631.945312 C 259.035156 631.578125 256.339844 629.878906 254.074219 626.882812 C 247.902344 618.734375 231.871094 595.613281 225.476562 586.351562 Z M 220.804688 675.652344 C 234.984375 675.652344 248.820312 654.089844 249.40625 653.171875 L 250.253906 651.832031 L 247.09375 647.375 C 252.386719 650.308594 258.160156 649.738281 260.652344 645.996094 C 262.195312 643.683594 262.296875 640.117188 259.125 636.089844 C 259.910156 636.320312 260.695312 636.539062 261.523438 636.636719 C 261.832031 636.679688 262.144531 636.695312 262.449219 636.695312 C 264.925781 636.695312 267.214844 635.515625 268.707031 633.425781 C 270.4375 631.003906 270.714844 627.851562 269.4375 625.199219 L 255.890625 596.996094 C 251.617188 588.105469 242.839844 582.324219 232.980469 581.914062 L 216.203125 581.238281 L 218.886719 585.132812 C 219.101562 585.457031 239.339844 614.851562 248.449219 627.246094 C 240.046875 621.15625 232.558594 616.0625 230.191406 614.46875 L 227.886719 604.785156 C 223.957031 588.320312 208.125 577.34375 190.269531 578.496094 C 183.824219 578.945312 176.695312 583.316406 171.679688 589.914062 C 164.589844 599.230469 162.230469 611.945312 165.035156 625.714844 C 171.789062 658.851562 183.316406 675.652344 199.3125 675.652344 Z M 357.871094 307.078125 C 355.308594 321.613281 340.113281 327.929688 339.464844 328.191406 C 339.179688 328.304688 338.878906 328.367188 338.578125 328.367188 C 337.644531 328.367188 336.757812 327.808594 336.386719 326.890625 C 335.894531 325.683594 336.476562 324.296875 337.6875 323.808594 C 337.820312 323.753906 351.109375 318.179688 353.210938 306.257812 C 353.4375 304.96875 354.660156 304.105469 355.953125 304.335938 C 357.242188 304.5625 358.101562 305.789062 357.871094 307.078125 Z M 303.527344 275.648438 C 303.230469 274.371094 304.019531 273.09375 305.289062 272.800781 C 306.5625 272.511719 307.835938 273.285156 308.136719 274.5625 L 316.464844 310.054688 L 328.675781 302.667969 C 329.789062 301.984375 331.246094 302.351562 331.921875 303.464844 C 332.601562 304.585938 332.246094 306.042969 331.125 306.71875 L 316.128906 315.796875 C 315.757812 316.019531 315.332031 316.136719 314.90625 316.136719 C 314.59375 316.136719 314.285156 316.078125 313.988281 315.953125 C 313.289062 315.660156 312.773438 315.046875 312.601562 314.308594 Z M 268.8125 256.761719 C 268.054688 255.714844 268.269531 254.246094 269.3125 253.476562 C 269.730469 253.167969 279.6875 246.046875 296.921875 253.605469 C 298.117188 254.132812 298.664062 255.527344 298.136719 256.726562 C 297.746094 257.613281 296.878906 258.140625 295.96875 258.140625 C 295.648438 258.140625 295.328125 258.074219 295.015625 257.941406 C 280.449219 251.542969 272.445312 257.054688 272.117188 257.292969 C 271.054688 258.042969 269.574219 257.816406 268.8125 256.761719 Z M 325.488281 253.125 C 324.554688 252.214844 324.53125 250.722656 325.433594 249.789062 C 325.941406 249.261719 338.203125 236.917969 358.765625 244.886719 C 359.988281 245.359375 360.59375 246.730469 360.117188 247.949219 C 359.644531 249.171875 358.261719 249.769531 357.058594 249.300781 C 339.507812 242.496094 329.257812 252.644531 328.832031 253.082031 C 328.371094 253.554688 327.753906 253.796875 327.140625 253.796875 C 326.542969 253.796875 325.949219 253.574219 325.488281 253.125 Z M 450.5 517.703125 L 434.515625 466.84375 L 502.933594 466.84375 L 518.167969 515.324219 C 520.375 522.324219 519.144531 529.730469 514.800781 535.648438 C 510.457031 541.5625 503.761719 544.960938 496.425781 544.960938 L 487.628906 544.960938 C 470.542969 544.960938 455.625 534.007812 450.5 517.703125 Z M 518.617188 538.449219 C 523.863281 531.300781 525.347656 522.359375 522.6875 513.910156 L 506.929688 463.769531 C 506.617188 462.78125 505.707031 462.109375 504.671875 462.109375 L 431.292969 462.109375 C 430.539062 462.109375 429.832031 462.46875 429.382812 463.074219 C 428.9375 463.679688 428.804688 464.46875 429.035156 465.1875 L 445.988281 519.125 C 451.730469 537.410156 468.464844 549.695312 487.628906 549.695312 L 496.425781 549.695312 C 505.289062 549.695312 513.375 545.59375 518.617188 538.449219 Z M 217.539062 466.65625 C 217.210938 465.386719 217.964844 464.09375 219.226562 463.761719 C 220.5 463.414062 221.785156 464.1875 222.117188 465.453125 L 235.53125 516.738281 C 235.859375 518.003906 235.105469 519.296875 233.839844 519.628906 C 233.636719 519.683594 233.433594 519.707031 233.238281 519.707031 C 232.1875 519.707031 231.230469 519.003906 230.949219 517.9375 Z M 657.644531 705.25 L 653.105469 706.601562 C 653.027344 706.316406 644.433594 678.265625 622.789062 667.816406 L 624.847656 663.550781 C 648.402344 674.921875 657.28125 704.015625 657.644531 705.25 Z M 383.023438 707.5 L 203.238281 707.5 L 267.171875 659.367188 L 435.46875 659.367188 Z M 441.550781 654.636719 L 266.382812 654.636719 C 265.867188 654.636719 265.367188 654.804688 264.957031 655.109375 L 194.734375 707.976562 C 193.921875 708.589844 193.589844 709.65625 193.914062 710.621094 C 194.230469 711.585938 195.140625 712.238281 196.15625 712.238281 L 383.949219 712.238281 C 384.539062 712.238281 385.117188 712.015625 385.546875 711.609375 L 443.148438 658.746094 C 443.867188 658.082031 444.113281 657.050781 443.753906 656.140625 C 443.40625 655.234375 442.527344 654.636719 441.550781 654.636719 " fill-opacity="1" fill-rule="nonzero"/></g><path fill="#100f0d" d="M 180.375 548.902344 L 252.570312 660.160156 L 268.8125 670.667969 C 270.097656 671.5 271.714844 670.25 271.230469 668.792969 L 264.402344 648.320312 L 191.621094 540.617188 Z M 345.679688 265.042969 C 343.175781 265.042969 341.144531 267.074219 341.144531 269.582031 C 341.144531 272.089844 343.175781 274.117188 345.679688 274.117188 C 348.183594 274.117188 350.214844 272.089844 350.214844 269.582031 C 350.214844 267.074219 348.183594 265.042969 345.679688 265.042969 Z M 295.378906 275.890625 C 295.378906 278.398438 293.347656 280.429688 290.839844 280.429688 C 288.335938 280.429688 286.304688 278.398438 286.304688 275.890625 C 286.304688 273.386719 288.335938 271.355469 290.839844 271.355469 C 293.347656 271.355469 295.378906 273.386719 295.378906 275.890625 " fill-opacity="1" fill-rule="nonzero"/></svg>